<?xml version="1.0" encoding="utf-8"?>
<!-- Generator: Adobe Illustrator 16.0.0, SVG Export Plug-In . SVG Version: 6.00 Build 0)  -->
<!DOCTYPE svg PUBLIC "-//W3C//DTD SVG 1.1//EN" "http://www.w3.org/Graphics/SVG/1.1/DTD/svg11.dtd">
<svg version="1.1" id="图层_1" xmlns="http://www.w3.org/2000/svg" xmlns:xlink="http://www.w3.org/1999/xlink" x="0px" y="0px"
	 width="239.465px" height="118.072px" viewBox="305.858 258.569 239.465 118.072"
	 enable-background="new 305.858 258.569 239.465 118.072" xml:space="preserve">
<g>
	<path fill-rule="evenodd" clip-rule="evenodd" fill="#DD2431" d="M405.861,269.431c0,15.759,0,32.748,0,48.363
		c2.619,0,4.838,0,7.424,0v-56.041c-9.732,0-19.309,0-28.863,0c-0.008-0.484,0.009-2.139,0-2.621c10.18,0,20.773,0,31.555,0
		c0,18.562,0,38.787,0,58.662c43.638,0,86.286,0,129.347,0c-0.001,0.6-0.001,1.541-0.001,2.141c-42.914,0-85.829,0-129.346,0
		c0,19.047,0,37.621,0,56.141c-12.195,0-23.779,0-35.363,0c-0.009-0.449-0.018-1.898-0.027-2.348c10.781,0,21.563,0,32.699,0
		c0-18.363,0-35.916,0-53.793h-7.424c0,15.801,0,31.631,0,47.575c0,0.03-100.003,0-100.003,0v-4.038h95.478
		c0-14.732,0-28.488,0-43.537c-15.766,0-31.523,0-47.281,0c0.001-0.578,0.002-1.562,0.003-2.141h47.278c0-14.996,0-29.211,0-44.191
		l-49.631-0.037v-4.031L405.861,269.431z"/>
</g>
</svg>
