<?xml version="1.0" encoding="utf-8"?>
<!-- Generator: Adobe Illustrator 22.0.0, SVG Export Plug-In . SVG Version: 6.00 Build 0)  -->
<svg version="1.2" baseProfile="tiny" id="图层_1"
	 xmlns="http://www.w3.org/2000/svg" xmlns:xlink="http://www.w3.org/1999/xlink" x="0px" y="0px" viewBox="0 0 200 200"
	 xml:space="preserve">
<path fill="#187BC0" d="M167,189H31c-10.6,0-19.3-8.7-19.3-19.3v-136c0-10.6,8.7-19.3,19.3-19.3h136c10.6,0,19.3,8.7,19.3,19.3v136
	C186.3,180.3,177.6,189,167,189z"/>
<path display="none" fill="#3C5A99" d="M189,200c6.1,0,11-4.9,11-11V11c0-6.1-4.9-11-11-11H11C4.9,0,0,4.9,0,11v177.9
	c0,6.1,4.9,11,11,11L189,200L189,200z"/>
<path fill="#FFFFFF" d="M138,189v-72.2h26l3.9-28.2H138v-18c0-8.2,2.4-13.7,15-13.7h16V31.8c-2.8-0.3-12.3-1.1-23.3-1.1
	c-23.1,0-38.8,13.1-38.8,37.2v20.7H80.8v28.2h26.1V189H138L138,189z"/>
</svg>
