<?xml version="1.0" standalone="no"?><!DOCTYPE svg PUBLIC "-//W3C//DTD SVG 1.1//EN" "http://www.w3.org/Graphics/SVG/1.1/DTD/svg11.dtd">
<svg class="icon" width="200px" height="200.00px" viewBox="0 0 1024 1024" version="1.1" xmlns="http://www.w3.org/2000/svg">
	<path fill="#ffffff" d="M975.1552 450.62656c-18.6112-29.66528-42.8544-48.31232-69.51424-53.87264-5.888-19.38432-20.35712-34.70848-38.6304-40.88832-8.8576-91.32544-48.49664-175.77984-112.20992-238.592-66.08384-65.15712-152.15104-101.03808-242.35008-101.03808-90.0864 0-176.08704 35.8144-242.15552 100.8384-63.81568 62.8224-103.552 147.35872-112.39424 238.7968-18.2784 6.17472-32.75264 21.49888-38.64576 40.8832-26.65984 5.56032-50.89792 24.20736-69.50912 53.87264-20.84864 33.2288-32.3328 77.02528-32.3328 123.3152 0 46.2592 11.48416 90.04544 32.3328 123.2896 18.6112 29.6704 42.84928 48.32256 69.50912 53.89312 7.72096 25.40032 30.17728 43.8272 56.62208 43.8272 32.79872 0 59.4688-28.34944 59.4688-63.20128V416.12288c0-26.66496-15.60576-49.51552-37.62176-58.78784 8.40192-80.11264 43.54048-154.10176 99.584-209.26464 58.68544-57.7792 135.09632-89.6 215.1424-89.6 80.13312 0 156.61056 31.88736 215.3216 89.7792 55.95136 55.15776 91.01824 129.0752 99.4048 209.09568-22.01088 9.2672-37.62176 32.11264-37.62176 58.7776v315.62752c0 27.21792 16.26624 50.46272 38.99904 59.3408-5.92896 82.87232-55.4496 129.96608-137.92256 129.96608h-62.73536c-8.19712-24.4992-30.22336-42.0864-56.04864-42.0864H472.85248c-32.78848 0-59.4688 28.35968-59.4688 63.2064 0 34.85696 26.68032 63.2064 59.4688 63.2064h98.9952c25.82528 0 47.85152-17.5872 56.04864-42.0864h62.73536c104.2944 0 171.12064-65.3056 177.72032-171.76064h0.01024c17.6384-6.46144 31.54944-21.51424 37.27872-40.41216 26.65984-5.57056 50.90304-24.2176 69.51936-53.89824 20.8384-33.23904 32.32768-77.02528 32.32768-123.2896 0-46.2848-11.48928-90.07616-32.32768-123.31008zM195.60448 731.7504c0 11.5712-8.84224 20.96128-19.72224 20.96128-10.87488 0-19.72224-9.3952-19.72224-20.96128 0-11.65312-8.89856-21.12-19.87584-21.12-42.88512 0-79.11936-62.592-79.11936-136.68864 0-74.10688 36.23424-136.69376 79.11936-136.69376 10.97728 0 19.87584-9.46688 19.87584-21.12512 0-11.56608 8.84736-20.96128 19.72224-20.96128 10.88 0 19.72224 9.3952 19.72224 20.96128v315.62752z m376.24832 231.39328H472.85248c-10.88 0-19.72224-9.3952-19.72224-20.96128 0-11.56608 8.84224-20.9664 19.72224-20.9664h98.9952c10.87488 0 19.72224 9.40032 19.72224 20.9664 0 11.56608-8.84736 20.96128-19.72224 20.96128z m316.7744-252.51328c-10.97728 0-19.87584 9.472-19.87584 21.12 0 11.5712-8.85248 20.96128-19.72224 20.96128-10.88 0-19.72224-9.3952-19.72224-20.96128V416.12288c0-11.56608 8.84224-20.96128 19.72224-20.96128 10.86976 0 19.72224 9.3952 19.72224 20.96128 0 11.66336 8.89344 21.12512 19.87584 21.12512 42.88512 0 79.11936 62.592 79.11936 136.69376 0 74.09664-36.23424 136.68864-79.11936 136.68864z m0 0"  />
</svg>