<?xml version="1.0" encoding="utf-8"?>
<!-- Generator: Adobe Illustrator 22.0.0, SVG Export Plug-In . SVG Version: 6.00 Build 0)  -->
<svg version="1.2" baseProfile="tiny" id="图层_1"
	 xmlns="http://www.w3.org/2000/svg" xmlns:xlink="http://www.w3.org/1999/xlink" x="0px" y="0px" viewBox="0 0 200 178.7"
	 xml:space="preserve">
<path fill="#0376B6" d="M168,176.3H32c-10.6,0-19.3-8.7-19.3-19.3V21c0-10.6,8.7-19.3,19.3-19.3h136c10.6,0,19.3,8.7,19.3,19.3v136
	C187.3,167.6,178.6,176.3,168,176.3z"/>
<path display="none" d="M0,71.3h7.3v26.5h13.3v6.7H0V71.3z M23.9,82h6.9v22.5h-6.9V82z M27.5,70.7c2.2,0,4.1,1.8,4.1,4.1
	c0,2.2-1.8,4.1-4.1,4.1s-4.1-1.8-4.1-4.1C23.4,72.6,25.1,70.7,27.5,70.7 M60,71.3h7.1v19.9l7.8-9.2h8.6l-9.2,10.3l8.9,12.2h-8.8
	l-7.5-11.1v11.1H60L60,71.3z M34.8,82h6.7v3h0.1c0.9-1.8,3.3-3.7,6.7-3.7c7.1,0,8.4,4.7,8.4,10.7v12.3h-6.9v-11c0-2.6,0-6-3.7-6
	c-3.7,0-4.2,2.9-4.2,5.8v11.1h-6.9V82H34.8z"/>
<path display="none" d="M98.2,90.6c0-2.4-1.8-4.3-4.3-4.3c-3,0-4.7,2.1-5,4.3H98.2z M104.1,100.5c-2.2,2.9-5.9,4.4-9.5,4.4
	c-6.9,0-12.5-4.7-12.5-11.9s5.6-11.9,12.5-11.9c6.5,0,10.6,4.7,10.6,11.9v2.2H88.9c0.5,2.6,2.6,4.3,5.2,4.3c2.2,0,3.8-1.2,5-2.7
	L104.1,100.5z M119.6,87.3c-3.5,0-5.6,2.4-5.6,5.8c0,3.4,2.1,5.8,5.6,5.8c3.5,0,5.6-2.4,5.6-5.8C125.2,89.7,123.1,87.3,119.6,87.3
	 M131.6,104.5h-6.4v-3h-0.1c-1,1.6-3.8,3.5-6.9,3.5c-6.7,0-11.1-4.8-11.1-11.6c0-6.3,3.9-12,10.3-12c2.9,0,5.6,0.8,7.2,3h0.1V71.3
	h6.9C131.6,71.3,131.6,104.5,131.6,104.5z"/>
<path display="none" fill="#007BB6" d="M182.2,64.3h-40.1c-2,0-3.5,1.6-3.5,3.4V108c0,1.8,1.6,3.4,3.5,3.4h40.1c2,0,3.5-1.6,3.5-3.4
	V67.7C185.8,65.9,184.2,64.3,182.2,64.3z"/>
<path fill="#FFFFFF" d="M41.4,66.9h26.5V153H41.4V66.9z M54.9,24.3c8.5,0,15.5,7,15.5,15.5s-7,15.5-15.5,15.5s-15.5-7-15.5-15.5
	S46.4,24.3,54.9,24.3 M84.9,66.9h25.5v11.5h0.5c3.5-7,12.5-14,25.5-14c27,0,32,18,32,41.1v47.1H142v-42.1c0-10,0-23-14-23
	c-14,0-16,11-16,22V152H85.4V66.9H84.9z"/>
<path display="none" d="M195.3,100.7c1-0.1,1.6-0.7,1.6-1.6c0-1.2-0.7-1.7-2.1-1.7h-2.2v5.9h0.8v-2.6h1l1.6,2.5h0.9
	C196.9,103.2,195.3,100.7,195.3,100.7z M194.2,100h-1v-2h1.2c0.7,0,1.4,0.1,1.4,0.9C195.9,99.9,195.2,100,194.2,100L194.2,100z"/>
<path display="none" d="M194.4,94.8c-3.1,0-5.6,2.5-5.6,5.6s2.5,5.6,5.6,5.6s5.6-2.5,5.6-5.6C200,97.1,197.5,94.8,194.4,94.8z
	 M194.4,105.1c-2.6,0-4.7-2.1-4.7-4.8c0-2.7,2.1-4.8,4.7-4.8c2.6,0,4.7,2.1,4.7,4.8C199.2,103,197.1,105.1,194.4,105.1z"/>
</svg>
