<?xml version="1.0" encoding="utf-8"?>
<!-- Generator: Adobe Illustrator 22.0.0, SVG Export Plug-In . SVG Version: 6.00 Build 0)  -->
<svg version="1.2" baseProfile="tiny" id="图层_1"
	 xmlns="http://www.w3.org/2000/svg" xmlns:xlink="http://www.w3.org/1999/xlink" x="0px" y="0px" viewBox="0 0 200 200"
	 xml:space="preserve">
<path fill="#52ACEF" d="M174.2,196H25.8c-11.6,0-21.1-9.5-21.1-21.1V26.4c0-11.6,9.5-21.1,21.1-21.1h148.5
	c11.6,0,21.1,9.5,21.1,21.1v148.5C195.3,186.5,185.8,196,174.2,196z"/>
<g>
	<path fill="#FFFFFF" d="M159.5,172.7H40.5c-9.1,0-16.6-7.5-16.6-16.6V41.4c0-9.1,7.5-16.6,16.6-16.6h118.9
		c9.1,0,16.6,7.5,16.6,16.6v114.7C176.1,165.2,168.6,172.7,159.5,172.7z"/>
	<path fill="#52ACEF" d="M12.9,175.5h171.6V23H12.9V175.5z M48.3,118.2c1.8,0.4,3.6,0.6,5.5,0.6c2.7,0,5.2-0.3,7.7-1
		C48.1,114.8,38,102.1,38,87c0-0.1,0-0.3,0-0.4c3.9,2.4,8.4,3.8,13.2,4c-7.8-5.7-13-15.3-13-26.1c0-5.7,1.4-11.1,4-15.6
		C56.7,68,78.2,80.6,102.5,82.2c-0.5-2.3-0.8-4.6-0.8-7.1c0-17.1,13.1-30.7,29.2-30.5c8.4,0.1,16,4,21.3,10.1
		c6.7-1.3,12.9-3.7,18.5-7.2c-2.2,7.1-6.8,13.1-12.9,16.8c5.9-0.7,11.5-2.2,16.8-4.6c-3.9,6.1-8.9,11.4-14.6,15.7
		c0.1,1.3,0.1,2.6,0.1,4c0,40.6-29.4,87.3-83.1,87.3c-16.5,0-31.8-5.2-44.8-14c2.3,0.3,4.6,0.4,7,0.4c13.7,0,26.3-4.9,36.3-13.2
		C62.8,139.6,52,130.6,48.3,118.2z"/>
</g>
</svg>
