<?xml version="1.0" encoding="utf-8"?>
<!-- Generator: Adobe Illustrator 22.0.0, SVG Export Plug-In . SVG Version: 6.00 Build 0)  -->
<svg version="1.1" id="图层_1" xmlns="http://www.w3.org/2000/svg" xmlns:xlink="http://www.w3.org/1999/xlink" x="0px" y="0px"
	 viewBox="0 0 200 200" style="enable-background:new 0 0 200 200;" xml:space="preserve">
<style type="text/css">
	.st0{display:none;fill:#ffffff;}
	.st1{fill:#ffffff;}
</style>
<path class="st0" d="M190.5,88c-3.6-5.8-8.4-9.4-13.6-10.5c-1.2-3.8-4-6.8-7.5-8c-1.7-17.8-9.5-34.3-21.9-46.6
	c-12.9-12.7-29.7-19.7-47.3-19.7c-17.6,0-34.4,7-47.3,19.7c-12.5,12.3-20.2,28.8-22,46.6c-3.6,1.2-6.4,4.2-7.5,8
	c-5.2,1.1-9.9,4.7-13.6,10.5c-4.1,6.5-6.3,15-6.3,24.1c0,9,2.2,17.6,6.3,24.1c3.6,5.8,8.4,9.4,13.6,10.5c1.5,5,5.9,8.6,11.1,8.6
	c6.4,0,11.6-5.5,11.6-12.3V81.3c0-5.2-3-9.7-7.3-11.5c1.6-15.6,8.5-30.1,19.5-40.9c11.5-11.3,26.4-17.5,42-17.5
	c15.7,0,30.6,6.2,42.1,17.5c10.9,10.8,17.8,25.2,19.4,40.8c-4.3,1.8-7.3,6.3-7.3,11.5v61.6c0,5.3,3.2,9.9,7.6,11.6
	c-1.2,16.2-10.8,25.4-26.9,25.4h-12.3c-1.6-4.8-5.9-8.2-10.9-8.2H92.4c-6.4,0-11.6,5.5-11.6,12.3c0,6.8,5.2,12.3,11.6,12.3h19.3
	c5,0,9.3-3.4,10.9-8.2h12.3c20.4,0,33.4-12.8,34.7-33.5h0c3.4-1.3,6.2-4.2,7.3-7.9c5.2-1.1,9.9-4.7,13.6-10.5
	c4.1-6.5,6.3-15,6.3-24.1C196.8,103.1,194.5,94.5,190.5,88L190.5,88z M38.2,142.9c0,2.3-1.7,4.1-3.9,4.1c-2.1,0-3.9-1.8-3.9-4.1
	c0-2.3-1.7-4.1-3.9-4.1c-8.4,0-15.5-12.2-15.5-26.7c0-14.5,7.1-26.7,15.5-26.7c2.1,0,3.9-1.8,3.9-4.1c0-2.3,1.7-4.1,3.9-4.1
	c2.1,0,3.9,1.8,3.9,4.1V142.9z M111.7,188.1H92.4c-2.1,0-3.9-1.8-3.9-4.1s1.7-4.1,3.9-4.1h19.3c2.1,0,3.9,1.8,3.9,4.1
	S113.8,188.1,111.7,188.1L111.7,188.1z M173.6,138.8c-2.1,0-3.9,1.8-3.9,4.1c0,2.3-1.7,4.1-3.9,4.1c-2.1,0-3.9-1.8-3.9-4.1V81.3
	c0-2.3,1.7-4.1,3.9-4.1c2.1,0,3.9,1.8,3.9,4.1c0,2.3,1.7,4.1,3.9,4.1c8.4,0,15.5,12.2,15.5,26.7C189,126.6,181.9,138.8,173.6,138.8
	L173.6,138.8z"/>
<path class="st1" d="M149.1,127.5c-1.9-2-3.9-4-6-5.8c-1.8-1.5-4.4-1.4-6,0.4c-1.5,1.8-1.4,4.4,0.4,6c1.9,1.6,3.7,3.4,5.4,5.2
	c1.9,2,3.7,4.2,5.4,6.4c10,13.3,15.3,29.2,15.3,46c0,2.3,1.9,4.3,4.3,4.3s4.3-1.9,4.3-4.3c0-18.6-5.9-36.2-17-51.1
	C153.2,132.2,151.2,129.8,149.1,127.5z M182.6,130.6c-1.7-2.2-3.5-4.4-5.4-6.4c-1.7-1.8-3.5-3.6-5.4-5.2c-1.8-1.5-4.5-1.4-6,0.4
	c-1.5,1.8-1.4,4.4,0.4,6c1.7,1.5,3.3,3,4.8,4.7c1.7,1.8,3.3,3.7,4.8,5.7c9,11.9,13.7,26.1,13.7,41.1c0,2.3,1.9,4.3,4.3,4.3
	s4.3-1.9,4.3-4.3C198,160,192.7,144,182.6,130.6z M172.6,64.4c0-28.4-23.1-51.5-51.5-51.5c-1.1,0-2.3,0.1-3.4,0.2
	c-8.8-5.7-19.3-9-30.6-9c-31.3,0-56.7,25.5-56.7,56.7c0,19.2,9.6,36.1,24.2,46.4c-31.3,13-52.4,44.1-52.4,78.5
	c0,2.3,1.9,4.3,4.3,4.3s4.3-1.9,4.3-4.3c0-33.3,22-63.1,53.6-73c7,3.1,14.7,4.9,22.9,4.9c7,0,13.7-1.3,19.9-3.7
	c4.5,1.3,9.2,2,14.1,2C149.5,115.9,172.6,92.8,172.6,64.4z M87.1,109.1c-26.6,0-48.2-21.6-48.2-48.2s21.6-48.2,48.2-48.2
	s48.2,21.6,48.2,48.2C135.3,87.4,113.7,109.1,87.1,109.1z M121.1,107.4c-0.5,0-1-0.1-1.5-0.2C134.2,97,143.8,80,143.8,60.8
	c0-14.9-5.8-28.5-15.3-38.6l0,0c20.2,3.6,35.5,21.1,35.5,42.2C164.1,88.1,144.8,107.4,121.1,107.4z M70.1,165l17,17l17-17l-17-42.5
	L70.1,165z"/>
</svg>
