<?xml version="1.0" encoding="utf-8"?>
<!-- Generator: Adobe Illustrator 22.0.0, SVG Export Plug-In . SVG Version: 6.00 Build 0)  -->
<svg version="1.2" baseProfile="tiny" id="图层_1"
	 xmlns="http://www.w3.org/2000/svg" xmlns:xlink="http://www.w3.org/1999/xlink" x="0px" y="0px" viewBox="0 0 200 200"
	 xml:space="preserve">
<path fill="#3AAD1D" d="M174.2,196H25.8c-11.6,0-21.1-9.5-21.1-21.1V26.4c0-11.6,9.5-21.1,21.1-21.1h148.5
	c11.6,0,21.1,9.5,21.1,21.1v148.5C195.3,186.5,185.8,196,174.2,196z"/>
<path fill="#FFFFFF" d="M164.9,184H35.1c-10.1,0-18.4-8.3-18.4-18.4V35.8c0-10.1,8.3-18.4,18.4-18.4h129.8
	c10.1,0,18.4,8.3,18.4,18.4v129.8C183.3,175.7,175,184,164.9,184z"/>
<path fill="#3AAD1D" d="M48.7,65.6c0,2.1,0.9,4.2,2.3,5.7s3.6,2.3,5.7,2.3c2.1,0,4.2-0.9,5.7-2.3c1.5-1.5,2.3-3.6,2.3-5.7
	c0-2.1-0.9-4.2-2.3-5.7c-1.5-1.5-3.6-2.3-5.7-2.3c-2.1,0-4.2,0.9-5.7,2.3C49.5,61.4,48.7,63.5,48.7,65.6L48.7,65.6z M111.2,107.2
	c0,1.7,0.7,3.3,1.9,4.5c1.1,1.1,2.8,1.9,4.5,1.9s3.3-0.7,4.5-1.9c1.1-1.1,1.9-2.8,1.9-4.5s-0.7-3.3-1.9-4.5
	c-1.1-1.1-2.8-1.9-4.5-1.9s-3.3,0.7-4.5,1.9C111.9,103.9,111.2,105.5,111.2,107.2L111.2,107.2z M89.7,65.6c0,2.1,0.9,4.2,2.3,5.7
	c1.5,1.5,3.6,2.3,5.7,2.3c2.1,0,4.2-0.9,5.7-2.3c1.5-1.5,2.3-3.6,2.3-5.7c0-2.1-0.9-4.2-2.3-5.7s-3.6-2.3-5.7-2.3
	c-2.1,0-4.2,0.9-5.7,2.3C90.5,61.4,89.7,63.5,89.7,65.6L89.7,65.6z M164.5,5.3H35.5c-17.1,0-30.9,13.9-30.9,31v128.8
	c0,17.1,13.9,31,30.9,31h128.9c17.1,0,30.9-13.9,30.9-31V36.3C195.4,19.2,181.5,5.3,164.5,5.3L164.5,5.3z M76.2,133.1
	c-7.2,0-13-1.5-20.3-2.9l-20.2,10.1l5.8-17.4c-14.5-10.1-23.1-23.1-23.1-39.1c0-27.5,26.1-49.2,57.9-49.2
	c28.5,0,53.3,17.3,58.3,40.6c-1.9-0.2-3.7-0.3-5.6-0.3c-27.5,0-49.2,20.5-49.2,45.8c0,4.2,0.7,8.3,1.8,12.1
	C79.9,133.1,78.1,133.1,76.2,133.1L76.2,133.1z M161.5,153.4l4.3,14.5l-15.9-8.7c-5.8,1.5-11.6,2.9-17.3,2.9
	c-27.5,0-49.2-18.8-49.2-42c0-23.1,21.7-42,49.2-42c26,0,49.1,18.9,49.1,42C181.8,133.1,173.1,144.7,161.5,153.4L161.5,153.4z
	 M142.7,107.2c0,1.7,0.7,3.3,1.9,4.5c1.1,1.1,2.8,1.9,4.5,1.9c1.7,0,3.3-0.7,4.5-1.9c1.1-1.1,1.9-2.8,1.9-4.5s-0.7-3.3-1.9-4.5
	c-1.1-1.1-2.8-1.9-4.5-1.9c-1.7,0-3.3,0.7-4.5,1.9C143.4,103.9,142.7,105.5,142.7,107.2L142.7,107.2z"/>
</svg>
