<?xml version="1.0" encoding="utf-8"?>
<!-- Generator: Adobe Illustrator 22.0.0, SVG Export Plug-In . SVG Version: 6.00 Build 0)  -->
<svg version="1.2" baseProfile="tiny" id="图层_1"
	 xmlns="http://www.w3.org/2000/svg" xmlns:xlink="http://www.w3.org/1999/xlink" x="0px" y="0px" viewBox="0 0 200 200"
	 xml:space="preserve">
<rect x="20.3" y="32.3" fill="#FFFFFF" width="154" height="139.3"/>
<path fill="#3AAD1D" d="M100,48c-28.4,0-51.5,23.1-51.5,51.5c0,9.7,2.7,19.2,7.9,27.4l1.2,2l-5.2,19l19.5-5.1l1.9,1.1
	c7.9,4.7,17,7.2,26.2,7.2h0c28.4,0,52.1-23.1,52.1-51.5c0-13.8-5.9-26.7-15.7-36.4C126.6,53.3,113.7,48,100,48z M130.3,121.6
	c-1.3,3.6-7.5,6.9-10.4,7.3c-4.9,0.7-8.7,0.4-18.6-3.9c-15.5-6.7-25.7-22.3-26.4-23.4c-0.8-1-6.3-8.4-6.3-16s4-11.4,5.4-12.9
	c1.4-1.6,3.1-2,4.1-2c1,0,2.1,0,3,0c0.9,0,2.2-0.4,3.5,2.7c1.3,3.1,4.4,10.7,4.8,11.5s0.7,1.7,0.1,2.7c-3,5.9-6.1,5.7-4.5,8.4
	c6,10.3,12,13.8,21.1,18.4c1.6,0.8,2.5,0.7,3.4-0.4c0.9-1,3.9-4.5,4.9-6.1c1-1.6,2.1-1.3,3.5-0.8c1.4,0.5,9,4.3,10.6,5
	c1.6,0.8,2.6,1.2,3,1.8C131.6,114.8,131.6,118,130.3,121.6z M168.8,12.5H31.3c-10.4,0-18.8,8.4-18.8,18.8v137.5
	c0,10.4,8.4,18.8,18.8,18.8h137.5c10.4,0,18.8-8.4,18.8-18.8V31.3C187.5,20.9,179.1,12.5,168.8,12.5z M100,161.4
	c-10.4,0-20.6-2.6-29.6-7.5l-32.9,8.6l8.8-32.1c-5.4-9.4-8.3-20-8.3-31c0-34.1,27.8-61.9,62-61.9c16.6,0,32.1,6.4,43.8,18.2
	c11.7,11.7,18.7,27.3,18.7,43.8C162.5,133.6,134.1,161.4,100,161.4L100,161.4z"/>
<path display="none" fill="#0376B6" d="M168,187H32c-10.6,0-19.3-8.7-19.3-19.3v-136c0-10.6,8.7-19.3,19.3-19.3h136
	c10.6,0,19.3,8.7,19.3,19.3v136C187.3,178.3,178.6,187,168,187z"/>
</svg>
